HIERARCHY
ROOT hip
{
  OFFSET 0 0 0
  CHANNELS 6 Xposition Yposition Zposition Zrotation Yrotation Xrotation
  JOINT abdomen
  {
    OFFSET 0 20.6881 -0.73152
    CHANNELS 3 Zrotation Xrotation Yrotation
    JOINT chest
    {
      OFFSET 0 11.7043 -0.48768
      CHANNELS 3 Zrotation Xrotation Yrotation
      JOINT neck
      {
        OFFSET 0 22.1894 -2.19456
        CHANNELS 3 Zrotation Xrotation Yrotation
        JOINT head
        {
          OFFSET -0.24384 7.07133 1.2192
          CHANNELS 3 Zrotation Xrotation Yrotation
          JOINT leftEye
          {
            OFFSET 4.14528 8.04674 8.04672
            CHANNELS 3 Zrotation Xrotation Yrotation
            End Site
            {
              OFFSET 1 0 0
            }
          }
          JOINT rightEye
          {
            OFFSET -3.6576 8.04674 8.04672
            CHANNELS 3 Zrotation Xrotation Yrotation
            End Site
            {
              OFFSET 1 0 0
            }
          }
        }
      }
      JOINT rCollar
      {
        OFFSET -2.68224 19.2634 -4.8768
        CHANNELS 3 Zrotation Xrotation Yrotation
        JOINT rShldr
        {
          OFFSET -8.77824 -1.95073 1.46304
          CHANNELS 3 Zrotation Xrotation Yrotation
          JOINT rForeArm
          {
            OFFSET -28.1742 -1.7115 0.48768
            CHANNELS 3 Zrotation Xrotation Yrotation
            JOINT rHand
            {
              OFFSET -22.5879 0.773209 7.07136
              CHANNELS 3 Zrotation Xrotation Yrotation
              JOINT rThumb1
              {
                OFFSET -1.2192 -0.487915 3.41376
                CHANNELS 3 Zrotation Xrotation Yrotation
                JOINT rThumb2
                {
                  OFFSET -3.37035 -0.52449 3.41376
                  CHANNELS 3 Zrotation Xrotation Yrotation
                  End Site
                  {
                    OFFSET -1.78271 -1.18214 1.43049
                  }
                }
              }
              JOINT rIndex1
              {
                OFFSET -7.75947 0.938293 5.60832
                CHANNELS 3 Zrotation Xrotation Yrotation
                JOINT rIndex2
                {
                  OFFSET -2.54057 -0.884171 1.56538
                  CHANNELS 3 Zrotation Xrotation Yrotation
                  End Site
                  {
                    OFFSET -1.62519 -0.234802 1.16502
                  }
                }
              }
              JOINT rMid1
              {
                OFFSET -8.24714 1.18213 3.41376
                CHANNELS 3 Zrotation Xrotation Yrotation
                JOINT rMid2
                {
                  OFFSET -3.10165 -0.590103 1.0647
                  CHANNELS 3 Zrotation Xrotation Yrotation
                  End Site
                  {
                    OFFSET -2.48547 -0.328903 0.83742
                  }
                }
              }
              JOINT rRing1
              {
                OFFSET -8.82822 0.546677 1.51678
                CHANNELS 3 Zrotation Xrotation Yrotation
                JOINT rRing2
                {
                  OFFSET -2.60934 -0.819778 -0.0198488
                  CHANNELS 3 Zrotation Xrotation Yrotation
                  End Site
                  {
                    OFFSET -2.33842 -0.294052 0.168128
                  }
                }
              }
              JOINT rPinky1
              {
                OFFSET -8.27202 -0.0477905 -0.4584
                CHANNELS 3 Zrotation Xrotation Yrotation
                JOINT rPinky2
                {
                  OFFSET -1.82734 -0.647385 -0.700984
                  CHANNELS 3 Zrotation Xrotation Yrotation
                  End Site
                  {
                    OFFSET -1.69225 -0.51767 -0.607171
                  }
                }
              }
            }
          }
        }
      }
      JOINT lCollar
      {
        OFFSET 2.68224 19.2634 -4.8768
        CHANNELS 3 Zrotation Xrotation Yrotation
        JOINT lShldr
        {
          OFFSET 8.77824 -1.95073 1.46304
          CHANNELS 3 Zrotation Xrotation Yrotation
          JOINT lForeArm
          {
            OFFSET 28.1742 -1.7115 0.48768
            CHANNELS 3 Zrotation Xrotation Yrotation
            JOINT lHand
            {
              OFFSET 22.5879 0.773209 7.07136
              CHANNELS 3 Zrotation Xrotation Yrotation
              JOINT lThumb1
              {
                OFFSET 1.2192 -0.487915 3.41376
                CHANNELS 3 Zrotation Xrotation Yrotation
                JOINT lThumb2
                {
                  OFFSET 3.37035 -0.52449 3.41376
                  CHANNELS 3 Zrotation Xrotation Yrotation
                  End Site
                  {
                    OFFSET 1.78271 -1.18214 1.43049
                  }
                }
              }
              JOINT lIndex1
              {
                OFFSET 7.75947 0.938293 5.60832
                CHANNELS 3 Zrotation Xrotation Yrotation
                JOINT lIndex2
                {
                  OFFSET 2.54057 -0.884171 1.56538
                  CHANNELS 3 Zrotation Xrotation Yrotation
                  End Site
                  {
                    OFFSET 1.62519 -0.234802 1.16502
                  }
                }
              }
              JOINT lMid1
              {
                OFFSET 8.24714 1.18213 3.41376
                CHANNELS 3 Zrotation Xrotation Yrotation
                JOINT lMid2
                {
                  OFFSET 3.10165 -0.590103 1.0647
                  CHANNELS 3 Zrotation Xrotation Yrotation
                  End Site
                  {
                    OFFSET 2.48547 -0.328903 0.83742
                  }
                }
              }
              JOINT lRing1
              {
                OFFSET 8.82822 0.546677 1.51678
                CHANNELS 3 Zrotation Xrotation Yrotation
                JOINT lRing2
                {
                  OFFSET 2.60934 -0.819778 -0.0198488
                  CHANNELS 3 Zrotation Xrotation Yrotation
                  End Site
                  {
                    OFFSET 2.33842 -0.294052 0.168128
                  }
                }
              }
              JOINT lPinky1
              {
                OFFSET 8.27202 -0.0477905 -0.4584
                CHANNELS 3 Zrotation Xrotation Yrotation
                JOINT lPinky2
                {
                  OFFSET 1.82734 -0.647385 -0.700984
                  CHANNELS 3 Zrotation Xrotation Yrotation
                  End Site
                  {
                    OFFSET 1.69225 -0.51767 -0.607171
                  }
                }
              }
            }
          }
        }
      }
    }
  }
  JOINT rButtock
  {
    OFFSET -8.77824 4.35084 1.2192
    CHANNELS 3 Zrotation Xrotation Yrotation
    JOINT rThigh
    {
      OFFSET 0 -1.70687 -2.19456
      CHANNELS 3 Zrotation Xrotation Yrotation
      JOINT rShin
      {
        OFFSET 0 -36.8199 0.73152
        CHANNELS 3 Zrotation Xrotation Yrotation
        JOINT rFoot
        {
          OFFSET 0.73152 -45.1104 -5.12064
          CHANNELS 3 Zrotation Xrotation Yrotation
          End Site
          {
            OFFSET -1.1221 -3.69964 12.103
          }
        }
      }
    }
  }
  JOINT lButtock
  {
    OFFSET 8.77824 4.35084 1.2192
    CHANNELS 3 Zrotation Xrotation Yrotation
    JOINT lThigh
    {
      OFFSET 0 -1.70687 -2.19456
      CHANNELS 3 Zrotation Xrotation Yrotation
      JOINT lShin
      {
        OFFSET 0 -36.8199 0.73152
        CHANNELS 3 Zrotation Xrotation Yrotation
        JOINT lFoot
        {
          OFFSET -0.73152 -45.1104 -5.12064
          CHANNELS 3 Zrotation Xrotation Yrotation
          End Site
          {
            OFFSET 1.1221 -3.69964 12.103
          }
        }
      }
    }
  }
}
MOTION
Frames:	4
Frame Time:	0.00833333
-46.2157 83.8108 70.5602 2.4071 75.7823 4.9622 1.3735 12.2616 15.062 -4.99269 -5.05079 4.05496 -12.267 -4.24439 -5.65849 13.3512 10.3021 -7.31291 -0.0 0.0 0.0 -0.0 0.0 0.0 -4.97903e-17 4.20485e-13 -1.21392e-13 76.2304 19.2083 4.96531 -15.4972 -8.22828 28.6183 -0.00765497 2.55791 0.359715 8.66323e-10 8.21396e-10 -8.99511e-10 1.49236e-09 1.42319e-09 -1.55951e-09 8.66338e-10 8.21392e-10 -8.9954e-10 7.73091 5.47488 0.417314 8.66325e-10 8.21391e-10 -8.99513e-10 2.90554 0.965183 0.102902 8.66329e-10 8.21392e-10 -8.99514e-10 10.2786 0.731801 0.0259123 8.66318e-10 8.21393e-10 -8.99512e-10 2.22167 -0.733487 -0.20892 -1.86271e-16 4.20484e-13 -1.21756e-13 -79.4529 5.83786 10.4138 12.0125 -5.4596 -21.6304 0.189738 12.3689 -1.76577 9.71826e-10 -1.90162e-09 6.32431e-10 1.68669e-09 -3.30604e-09 1.08066e-09 9.71819e-10 -1.90162e-09 6.32427e-10 -7.73091 5.47488 -0.417314 9.71828e-10 -1.90162e-09 6.32431e-10 -2.90554 0.965183 -0.102902 9.71824e-10 -1.90161e-09 6.32426e-10 -10.2786 0.731801 -0.0259123 9.71825e-10 -1.90162e-09 6.32421e-10 -2.22167 -0.733487 0.20892 -2.03217e-16 0.0 -3.88251e-19 -6.86928 5.85027 -15.1714 -0.159908 26.3232 0.322309 -2.67296 -0.295141 -25.1974 2.03217e-16 0.0 3.88251e-19 -3.1278 -23.6014 4.3256 0.0868745 20.0542 0.0334773 0.547922 0.730599 0.267787
-45.4375 83.7915 70.4822 2.7532 76.2678 5.2681 1.27951 12.1884 14.7281 -4.93647 -5.07127 3.9525 -12.2563 -4.10914 -5.6335 13.3373 10.2657 -7.28128 -0.0 0.0 0.0 -0.0 0.0 0.0 -1.33185e-14 3.01114e-14 -7.83464e-14 76.5353 19.2238 4.6076 -15.529 -8.25685 28.6844 -0.00566299 2.1943 0.30853 1.09874e-09 6.8953e-10 -6.87408e-10 1.89527e-09 1.19538e-09 -1.19316e-09 1.09876e-09 6.89525e-10 -6.87429e-10 7.73091 5.47488 0.417314 1.09875e-09 6.89523e-10 -6.87411e-10 2.90554 0.965183 0.102902 1.09875e-09 6.89524e-10 -6.8741e-10 10.2786 0.731801 0.0259123 1.09874e-09 6.89527e-10 -6.87409e-10 2.22167 -0.733487 -0.20892 -1.3412e-14 3.01125e-14 -7.87001e-14 -79.5404 5.03062 10.5181 11.7589 -5.28269 -21.1413 0.214764 13.119 -1.87676 1.2018e-09 -1.25958e-09 9.56503e-10 2.08767e-09 -2.19824e-09 1.63835e-09 1.20179e-09 -1.25958e-09 9.56502e-10 -7.73091 5.47488 -0.417314 1.2018e-09 -1.25958e-09 9.5651e-10 -2.90554 0.965183 -0.102902 1.20179e-09 -1.25958e-09 9.56502e-10 -10.2786 0.731801 -0.0259123 1.20179e-09 -1.25958e-09 9.56501e-10 -2.22167 -0.733487 0.20892 -2.03217e-16 0.0 -3.88251e-19 -7.48755 5.54194 -15.3169 -0.1781 27.746 0.323311 -2.27927 0.604483 -25.0328 2.03217e-16 0.0 3.88251e-19 -3.44708 -23.0283 4.66682 0.0849118 20.0013 0.0490915 0.485411 0.62452 -0.829864
-44.6179 83.8867 70.4113 2.8288 76.6813 5.2666 1.16689 12.1184 14.4346 -4.88867 -5.08846 3.86047 -12.235 -4.01803 -5.62407 13.3325 10.2944 -7.2822 -0.0 0.0 0.0 -0.0 0.0 0.0 -2.14306e-14 -2.0096e-13 -6.10269e-14 76.8479 19.1997 4.24832 -15.5479 -8.27384 28.7239 -0.00442779 1.89962 0.267074 1.27133e-09 6.54285e-10 -5.67125e-10 2.19447e-09 1.13472e-09 -9.85471e-10 1.27134e-09 6.5428e-10 -5.67141e-10 7.73091 5.47488 0.417314 1.27133e-09 6.54278e-10 -5.67128e-10 2.90554 0.965183 0.102902 1.27134e-09 6.54279e-10 -5.67125e-10 10.2786 0.731801 0.0259123 1.27133e-09 6.54282e-10 -5.67125e-10 2.22167 -0.733487 -0.20892 -2.15083e-14 -2.00958e-13 -6.13748e-14 -79.6249 4.42204 10.6041 11.5495 -5.13764 -20.7412 0.236725 13.724 -1.96693 1.35614e-09 -9.58878e-10 1.10985e-09 2.35599e-09 -1.68005e-09 1.90153e-09 1.35613e-09 -9.58878e-10 1.10985e-09 -7.73091 5.47488 -0.417314 1.35614e-09 -9.58879e-10 1.10986e-09 -2.90554 0.965183 -0.102902 1.35613e-09 -9.58877e-10 1.10985e-09 -10.2786 0.731801 -0.0259123 1.35614e-09 -9.58874e-10 1.10985e-09 -2.22167 -0.733487 0.20892 -2.03217e-16 0.0 -3.88251e-19 -8.08172 5.1071 -15.3346 -0.202049 29.26 0.317531 -1.66462 1.98632 -24.8183 2.03217e-16 0.0 3.88251e-19 -3.78274 -22.4374 4.7905 0.082803 19.9479 0.0645112 0.435793 0.552296 -1.64738
-43.7954 83.9845 70.3485 2.902 77.0652 5.1884 1.05238 12.0442 14.2078 -4.86712 -5.09945 3.78629 -12.1984 -3.98749 -5.63897 13.3356 10.4295 -7.33418 -0.0 0.0 0.0 -0.0 0.0 0.0 -1.92267e-14 -1.20239e-13 -9.42441e-14 77.1733 19.1157 3.87973 -15.5528 -8.27824 28.7344 -0.00353705 1.67062 0.234862 1.38222e-09 8.21049e-10 -6.318e-10 2.38655e-09 1.42366e-09 -1.09759e-09 1.38223e-09 8.21045e-10 -6.31817e-10 7.73091 5.47488 0.417314 1.38222e-09 8.21043e-10 -6.31805e-10 2.90554 0.965183 0.102902 1.38223e-09 8.21045e-10 -6.318e-10 10.2786 0.731801 0.0259123 1.38222e-09 8.21048e-10 -6.318e-10 2.22167 -0.733487 -0.20892 -1.93361e-14 -1.20238e-13 -9.4599e-14 -79.7048 4.03076 10.6791 11.402 -5.03677 -20.4605 0.2528 14.1572 -2.0317 1.41072e-09 -1.27752e-09 9.97084e-10 2.4488e-09 -2.23231e-09 1.70538e-09 1.41071e-09 -1.27753e-09 9.97085e-10 -7.73091 5.47488 -0.417314 1.41072e-09 -1.27752e-09 9.97092e-10 -2.90554 0.965183 -0.102902 1.41071e-09 -1.27752e-09 9.97087e-10 -10.2786 0.731801 -0.0259123 1.41072e-09 -1.27752e-09 9.97089e-10 -2.22167 -0.733487 0.20892 -2.03217e-16 0.0 -3.88251e-19 -8.62931 4.52176 -15.178 -0.232722 30.853 0.296036 -0.668461 4.22608 -24.622 2.03217e-16 0.0 3.88251e-19 -4.12215 -21.8205 4.55083 0.0804529 19.9013 0.0793487 0.409812 0.557214 -2.03592
